<?xml version="1.0" encoding="UTF-8" standalone="no"?><!DOCTYPE svg PUBLIC "-//W3C//DTD SVG 1.1//EN" "http://www.w3.org/Graphics/SVG/1.1/DTD/svg11.dtd"><svg width="100%" height="100%" viewBox="0 0 126 126" version="1.1" xmlns="http://www.w3.org/2000/svg" xmlns:xlink="http://www.w3.org/1999/xlink" xml:space="preserve" xmlns:serif="http://www.serif.com/" style="fill-rule:evenodd;clip-rule:evenodd;stroke-linejoin:round;stroke-miterlimit:2;"><rect id="Artboard1" x="0" y="0" width="125.28" height="125.28" style="fill:none;"/><g><path d="M60.75,47.946c3.342,-2.728 8.046,-4.637 10.765,-5.178c1.567,-0.312 5.715,-0.401 9.185,0.537c2.944,0.796 5.302,2.533 6.206,3.384c5.098,4.798 4.413,10.898 3.838,12.533c-0.621,2.202 -1.444,3.594 -2.003,4.282c-2.213,0.609 -2.416,-0.501 -5.377,0.709c-0.954,0.421 -0.933,0.414 -1.839,0.973c-0.6,0.341 -0.6,0.302 -1.173,0.717c-0.521,0.389 -0.484,0.403 -0.949,0.864c-0.276,0.286 -0.265,0.267 -0.513,0.596c-1.565,2.262 -1.593,3.445 -1.727,4.11l-0.039,0.714l0.047,1.468c0.133,0.932 0.087,0.92 0.369,1.811c0.391,1.235 0.699,1.149 0.728,2.457c-1.331,3.245 -1.93,2.988 -2.517,5.433c-0.877,3.654 -2.302,4.946 -0.695,5.848c1.26,0.707 1.465,0.491 2.199,1.738c0.047,0.255 0.875,2.513 -2.155,3.246c-5.643,1.366 -9.806,-3.562 -10.308,-4.092c-0.789,-0.858 -2.441,-3.055 -2.543,-3.208c-0.625,-0.933 -0.805,-1.114 -3.068,-0.445c-0.702,0.208 -1.371,1.881 -0.926,2.212c1.042,0.775 1.178,0.694 1.587,1.942l-0.123,0.759c-0.54,1.441 -6.054,2.697 -9.401,-0.486c-1.023,-1.66 -0.899,-1.708 -1.43,-3.582c-0.283,-1.001 -0.861,0.097 -4.541,2.053c-0.969,0.515 -0.214,0.757 0.457,1.61c0.058,0.181 0.517,1.623 -0.137,2.377c-0.49,0.565 -2.246,0.866 -3.09,0.871c-5.075,0.033 -5.362,-2.668 -5.833,-3.201c-1.768,-2 -1.645,-3.921 -0.217,-6.87c2.149,-4.435 -0.044,-4.842 1.292,-11.586c0.363,-1.833 1.235,-2.169 -0.218,-3.323c-5.581,-4.431 -6.755,-12.895 -5.91,-17.58c1.968,-10.91 9.355,-13.085 11.31,-9.761c2.711,4.611 -5.135,4.303 -4.231,15.887c0.175,2.244 2.394,7.85 4.039,6.682c5.854,-4.154 9.672,-2.936 12.008,-3.186c0.796,-0.085 0.564,-0.706 0.598,-2.048c-3.336,-1.767 -4.819,-5.128 -4.996,-7.423c-0.186,-2.411 3.1,-2.314 5.52,-2.64c2.42,-0.326 5.853,-1.44 5.853,-1.44c0,0 -0.013,0.083 -0.04,0.236Z" style="fill:#1c1a1b;"/><path d="M83.364,64.212c-0.069,0.817 -0.459,1.664 -0.281,2.205c0.629,1.912 1.493,2.492 1.594,2.622c0.308,0.398 0.293,1.502 1.164,0.586c2.377,-2.499 2.703,-2.195 3.565,-3.635c0.224,0.093 0.101,0.431 0.86,0.357c0.565,-0.055 0.612,-0.423 1.054,-0.038c0.199,0.173 0.277,0.46 0.476,0.633c0.244,-0.207 0.488,-0.413 0.733,-0.62c1.078,1.154 1.02,1.187 1.676,2.627c-0.046,0.103 0.185,0.204 0.139,0.307c-0.397,0.885 -0.668,0.364 -1.577,0.032c-1.702,-0.622 -2.124,0.374 -1.66,0.575c1.179,0.51 1.182,0.453 2.348,0.961c0.155,0.067 0.335,0.074 0.482,0.158c0.412,0.235 0.473,0.428 0.792,0.086c0.08,-0.085 -0.11,-0.263 -0.03,-0.349c0.16,1.588 0.223,1.582 -0.042,3.3c-2.024,1.098 -4.288,2.137 -3.345,2.516c0.78,0.313 1.842,-0.895 2.171,-0.743c0.17,0.078 0.233,0.311 0.403,0.39c-0.934,1.488 -0.937,1.468 -1.724,2.287c-0.221,-0.166 -0.261,-0.509 -0.481,-0.675c-0.046,-0.035 -0.117,0.217 -0.696,-0.209c-0.629,-0.463 -3.511,-4.623 -4.372,-4.434c-1.128,0.247 0.005,1.338 0.087,1.417c1.738,1.674 3.79,3.53 3.965,4.476c0.201,1.082 0.486,0.908 1.032,1.44c0.053,1.102 0.248,1.818 -0.894,4.993c-2.704,7.522 1.908,7.466 2.058,8.689c0.14,1.137 -1.749,0.453 -2.625,-0.703c-3.681,-4.862 0.669,-8.904 0.443,-12.625c-0.104,-1.718 -1.037,-0.069 -4.423,0.15c-1.624,-0.056 -1.614,0.04 -3.183,-0.298c-0.002,-0.039 -0.102,-0.012 -0.104,-0.05c-0.03,-0.483 0.069,-0.493 -0.163,-0.931c-0.336,-0.635 -0.153,-1.011 -0.851,-0.881c-0.743,0.139 -0.696,0.248 -1.066,0.898c-1.018,-0.784 -1.007,-0.774 -1.875,-1.704c-0.249,-0.033 -0.498,-0.066 -0.746,-0.099c-0.029,-1.308 -0.337,-1.223 -0.728,-2.457c-0.282,-0.891 -0.236,-0.878 -0.369,-1.811c0.025,-0.004 1.077,0.171 0.841,-0.754c-0.046,-0.18 -0.265,-0.32 -0.888,-0.714l0.039,-0.714c1.293,0.073 1.282,0.295 1.787,1.501c0.146,0.349 0.409,0.403 0.417,0.419c0.048,0.091 -0.042,0.207 -0.023,0.308c0.01,0.054 0.01,0.05 0.131,0.672c0.024,0.445 -0.194,2.597 1.032,2.149c1.581,-0.578 1.564,-0.821 1.678,-2.494c0.051,-0.749 -0.946,-0.401 -1.058,-0.092c-0.237,0.653 -0.082,1.243 -0.627,0.797c-0.199,-0.163 -0.209,-0.491 -0.407,-0.654c-0.038,-0.429 0.023,-0.425 -0.074,-0.848c-0.158,-0.689 -0.167,-0.668 -0.337,-1.351c0.697,-0.352 0.728,-0.316 0.752,-0.379c0.07,-0.179 -0.017,-0.186 0.055,-0.373c0.902,-0.02 0.878,-0.03 1.128,-0.012c0.022,0.621 0.101,0.756 -0.502,0.945c-1.101,0.345 -0.172,0.722 0.11,0.663c1.161,-0.245 1.994,-0.135 1.316,-1.13c-0.295,-0.433 -0.289,-0.413 -0.574,-0.874c-0.597,-0.676 -0.704,-0.597 -0.994,-1.444c-0.265,-0.772 -0.082,-0.78 0.349,-1.479c0.154,0.334 1.845,3.991 2.782,3.658c1.221,-0.434 -1.605,-2.929 -2.076,-5.054c-0.144,-0.651 -0.248,-0.6 -0.502,-1.216c0.907,-0.559 0.885,-0.552 1.839,-0.973Z" style="fill:#e26160;"/><path d="M67.069,63.907c0.019,-0.421 0.145,-3.194 2.722,-4.513c5.233,-2.678 8.068,3.939 6.692,5.175c-0.881,0.791 -0.387,-1.439 -0.435,-1.622c-1.164,-4.412 -5.033,1.793 -2.02,3.471c0.786,0.438 -1.422,1.168 -2.525,1.226c-3.982,0.21 -4.381,-3.277 -4.434,-3.738Z" style="fill:#faf9fa;"/><path d="M88.572,57.069c-0.185,-0.076 -0.375,-0.489 -1.225,-0.498c-1.173,-0.012 -2.038,2.841 -1.362,4.424c0.815,1.907 -2.089,1.006 -2.166,0.966c-3.496,-1.858 -1.268,-9.221 2.098,-8.162c1.864,0.586 2.522,2.967 2.655,3.27Z" style="fill:#f9f4ed;"/><path d="M88.741,63.504c0.598,0.732 0.664,0.641 1.526,1.062c-0.186,0.281 -0.425,0.405 -0.861,1.424c-0.863,1.441 -1.189,1.136 -3.565,3.635c-0.871,0.916 -0.855,-0.188 -1.164,-0.586c-0.101,-0.13 -0.965,-0.71 -1.594,-2.622c-0.178,-0.541 0.212,-1.388 0.281,-2.205c2.961,-1.209 3.164,-0.1 5.377,-0.709Z" style="fill:#f17b78;"/><path d="M89.923,71.476c-0.051,-0.52 -0.136,-0.999 0.263,-0.888c0.229,0.064 3.457,1.459 3.57,1.691c0.318,0.651 -2.934,3.547 -3.705,2.693c-0.726,-0.804 -0.966,-0.646 -1.233,-1.692c0.862,-0.7 0.929,-0.701 1.105,-1.805Z" style="fill:#f27e7b;"/><path d="M92.161,78.469c-0.785,0.779 -0.588,0.901 -0.465,2.015c-0.547,-0.532 -0.832,-0.358 -1.032,-1.44c-0.176,-0.946 -2.227,-2.802 -3.965,-4.476c-0.082,-0.079 -1.215,-1.17 -0.087,-1.417c0.861,-0.189 3.743,3.971 4.372,4.434c0.579,0.426 0.65,0.174 0.696,0.209c0.221,0.166 0.261,0.509 0.481,0.675Z" style="fill:#ef7573;"/><path d="M78.89,67.363c0.144,0.23 0.493,0.277 0.636,0.507c0.006,0.009 -0.288,1.351 -0.313,1.468c-0.196,0.895 0.015,0.882 0.467,2.541c0.17,0.683 0.178,0.662 0.337,1.351c0.097,0.423 0.037,0.419 0.074,0.848c-0.341,0.093 -0.324,0.106 -0.617,0.294c-0.121,-0.622 -0.121,-0.618 -0.131,-0.672c-0.018,-0.101 0.071,-0.217 0.023,-0.308c-0.008,-0.015 -0.271,-0.07 -0.417,-0.419c-0.504,-1.205 -0.493,-1.428 -1.787,-1.501c0.134,-0.665 0.162,-1.847 1.727,-4.11Z" style="fill:#ee7272;"/><path d="M81.525,65.185c0.254,0.616 0.357,0.565 0.502,1.216c0.471,2.124 3.297,4.62 2.076,5.054c-0.938,0.333 -2.628,-3.324 -2.782,-3.658c-0.214,-0.51 -0.236,-0.489 -0.385,-1.016c-0.196,-0.692 -0.523,-0.787 -0.583,-0.878c0.573,-0.415 0.573,-0.376 1.173,-0.717Z" style="fill:#f48785;"/><path d="M80.091,74.078c0.199,0.163 0.209,0.491 0.407,0.654c0.545,0.446 0.389,-0.144 0.627,-0.797c0.112,-0.309 1.109,-0.657 1.058,0.092c-0.113,1.674 -0.096,1.916 -1.678,2.494c-1.226,0.448 -1.008,-1.703 -1.032,-2.149c0.294,-0.188 0.277,-0.201 0.617,-0.294Z" style="fill:#f4807c;"/><path d="M80.352,65.903c0.06,0.091 0.387,0.186 0.583,0.878c0.149,0.527 0.171,0.506 0.385,1.016c-0.431,0.699 -0.614,0.707 -0.349,1.479c0.29,0.847 0.398,0.768 0.994,1.444l-0.35,0.396c-0.251,-0.018 -0.226,-0.009 -1.128,0.012c-0.222,-0.91 -0.281,-0.89 -0.336,-1.815c-0.112,-1.9 -0.017,-1.929 -0.219,-2.164c-0.142,-0.165 -0.388,-0.217 -0.53,-0.382c0.465,-0.462 0.428,-0.476 0.949,-0.864Z" style="fill:#ea6d6e;"/><path d="M85.19,77.034c0.651,0.485 0.823,1.086 2.187,0.376c0.455,-0.237 0.597,-0.138 0.697,-0.161c0.021,0.023 0.83,0.326 -0.057,0.961c-0.416,0.298 -0.445,0.193 -1.05,0.329c-1.587,0.183 -1.564,0.248 -3.112,0.69c-0.4,-0.574 -0.631,-0.857 0.268,-1.239c0.409,-0.173 0.296,-0.29 0.378,-0.37c0.419,-0.218 0.378,-0.243 0.689,-0.585Z" style="fill:#f47e7a;"/><path d="M85.19,77.034c0.05,-0.042 1.161,-0.215 -0.01,-1.21c-0.902,-0.767 0.053,-1.687 0.812,-0.774c0.887,1.068 1.906,2.032 2.082,2.198c-0.099,0.023 -0.242,-0.075 -0.697,0.161c-1.365,0.71 -1.536,0.109 -2.187,-0.376Z" style="fill:#ee7472;"/><path d="M94.205,68.95c0.292,0.827 0.336,0.806 0.495,1.77c-0.08,0.085 0.11,0.263 0.03,0.349c-0.319,0.342 -0.381,0.149 -0.792,-0.086c-0.147,-0.084 -0.327,-0.091 -0.482,-0.158c-1.166,-0.507 -1.169,-0.451 -2.348,-0.961c-0.464,-0.2 -0.042,-1.197 1.66,-0.575c0.908,0.332 1.18,0.853 1.577,-0.032c0.046,-0.103 -0.185,-0.204 -0.139,-0.307Z" style="fill:#ef7f7b;"/><path d="M79.403,66.767c0.142,0.165 0.388,0.217 0.53,0.382c0.202,0.235 0.106,0.264 0.219,2.164c0.055,0.925 0.114,0.904 0.336,1.815c-0.072,0.187 0.014,0.194 -0.055,0.373c-0.024,0.063 -0.055,0.028 -0.752,0.379c-0.452,-1.659 -0.663,-1.647 -0.467,-2.541c0.026,-0.117 0.319,-1.459 0.313,-1.468c-0.144,-0.23 -0.493,-0.277 -0.636,-0.507c0.248,-0.329 0.237,-0.31 0.513,-0.596Z" style="fill:#df5758;"/><path d="M94.657,74.019c-0.27,1.133 -0.231,1.139 -0.772,2.163c-0.17,-0.078 -0.233,-0.311 -0.403,-0.39c-0.329,-0.152 -1.391,1.056 -2.171,0.743c-0.943,-0.379 1.321,-1.418 3.345,-2.516Z" style="fill:#f1817c;"/><path d="M90.267,64.566c1.214,0.779 1.199,0.776 2.261,1.758c-0.244,0.207 -0.488,0.413 -0.733,0.62c-0.199,-0.173 -0.277,-0.46 -0.476,-0.633c-0.442,-0.385 -0.489,-0.017 -1.054,0.038c-0.758,0.073 -0.636,-0.264 -0.86,-0.357c0.437,-1.02 0.675,-1.144 0.861,-1.424Z" style="fill:#e36967;"/><path d="M80.889,79.727c0.37,-0.65 0.322,-0.759 1.066,-0.898c0.698,-0.13 0.515,0.246 0.851,0.881c0.233,0.439 0.134,0.448 0.163,0.931c0.002,0.039 0.102,0.012 0.104,0.05c-1.147,-0.383 -1.121,-0.394 -2.185,-0.965Z" style="fill:#f37977;"/><path d="M81.965,70.719c0.285,0.461 0.278,0.441 0.574,0.874c0.678,0.995 -0.154,0.885 -1.316,1.13c-0.282,0.06 -1.21,-0.318 -0.11,-0.663c0.603,-0.189 0.524,-0.324 0.502,-0.945l0.35,-0.396Z" style="fill:#f07a77;"/><path d="M88.771,71.066c0.159,0.012 0.247,-0.267 0.407,-0.255c0,0 0.686,0.612 0.745,0.665c-0.176,1.103 -0.243,1.104 -1.105,1.805c-0.04,-0.255 -0.081,-0.509 -0.121,-0.764c0.487,-0.9 0.462,-0.958 0.426,-1.04c-0.072,-0.165 -0.28,-0.246 -0.353,-0.411Z" style="fill:#e35e5c;"/><path d="M80.569,63.331c0.23,-0.042 0.419,-0.223 0.649,-0.265c0.764,-0.139 0.566,1.185 -0.348,1.312c-0.372,0.052 -2.222,-0.349 -0.3,-1.048Z" style="fill:#e6e4e1;"/><path d="M85.19,77.034c-0.311,0.342 -0.27,0.367 -0.689,0.585l-0.207,-0.333c-0.178,-0.056 -0.356,-0.112 -0.534,-0.168c-0.737,-0.178 -0.941,-0.464 -0.355,-0.942c0.564,-0.46 1.636,0.721 1.785,0.858Z" style="fill:#ef6c6c;"/><path d="M80.433,78.067c-0.084,-0.139 -0.348,-0.088 -0.433,-0.227c-0.197,-0.325 2.716,-1.076 2.286,-0.237c-0.102,0.2 -0.529,0.364 -1.46,0.638l-0.393,-0.174Z" style="fill:#f17c78;"/><path d="M88.771,71.066c0.072,0.165 0.28,0.246 0.353,0.411c0.036,0.082 0.061,0.14 -0.426,1.04c-0.176,-0.015 -0.352,-0.03 -0.528,-0.045c-0.101,-0.178 -0.202,-0.355 -0.303,-0.533c0.326,-0.322 0.832,-0.804 0.905,-0.873Z" style="fill:#ee6f6c;"/><path d="M77.124,72.186c0.622,0.394 0.842,0.534 0.888,0.714c0.236,0.925 -0.816,0.75 -0.841,0.754c-0.016,-0.489 -0.031,-0.979 -0.047,-1.468Z" style="fill:#e1706d;"/><path d="M88.643,78.981c0.236,-0.206 0.194,-0.221 0.47,-0.411c0.837,-0.577 0.436,0.868 0.043,0.835c-0.221,-0.019 -0.293,-0.405 -0.514,-0.423Z" style="fill:#ed7c76;"/></g></svg>