<?xml version="1.0" encoding="UTF-8" standalone="no"?><!DOCTYPE svg PUBLIC "-//W3C//DTD SVG 1.1//EN" "http://www.w3.org/Graphics/SVG/1.1/DTD/svg11.dtd"><svg width="100%" height="100%" viewBox="0 0 126 126" version="1.1" xmlns="http://www.w3.org/2000/svg" xmlns:xlink="http://www.w3.org/1999/xlink" xml:space="preserve" xmlns:serif="http://www.serif.com/" style="fill-rule:evenodd;clip-rule:evenodd;stroke-linejoin:round;stroke-miterlimit:2;"><rect id="Artboard1" x="0" y="0" width="125.28" height="125.28" style="fill:none;"/><g><path d="M53.608,37.097c2.227,-1.504 4.862,-2.387 7.968,-2.843c2.271,-0.334 8.965,-0.731 12.995,2.319c0.056,0.042 4.597,3.324 6.023,7.957c3.322,10.79 -4.692,16.308 -7.426,18.398c-1.787,1.366 1.042,1.709 1.655,9.69c-0.531,0.426 -0.517,0.446 -0.574,0.46c-1.514,0.359 -1.533,0.256 -2.966,0.895l-0.606,0.245c-0.853,0.551 -0.82,0.563 -1.61,1.179l-0.365,0.314c-1.16,1.195 -1.164,1.411 -1.774,2.643l-0.429,1.052c-0.205,0.999 -0.551,2.235 -0.209,4.384c0.198,0.615 0.256,1.414 1.41,3.258c0.47,0.63 0.459,0.617 1.026,1.158c0.277,0.295 0.247,0.302 0.508,0.687c-0.724,0.342 -0.844,0.335 -3.314,-0.025c-1.655,-0.241 -1.665,1.829 -6.129,0.348c-1.433,-0.229 -1.422,0.026 -2.869,0.094c-1.642,0.078 -3.988,-0.073 -4.335,-0.095c-5.574,-0.358 -5.301,-1.319 -6.575,-2.02c-1.147,-0.632 -1.423,0.534 -5.643,-0.968c-1.609,-0.728 -4.069,-1.695 -6.23,-6.371c-1.455,-3.149 -1.325,-8.041 -0.696,-10.137c3.044,-10.136 10.216,-6.706 9.511,-2.85c-0.273,1.495 -0.479,1.404 -1.378,2.627c-3.943,5.359 1.915,13.484 1.777,9.978c-0.029,-0.743 -0.176,-4.468 2.486,-8.961c2.037,-3.438 3.169,-4.476 3.552,-5.077c0.451,-0.708 -0.406,-1.073 -0.827,-1.382c-5.212,-3.815 -6.349,-9.649 -5.03,-14.86c-1.053,-0.982 -2.404,-2.354 -3.661,-4.689c-1.74,-3.233 -1.7,-5.372 -0.96,-5.76c1.378,-0.723 3.259,-0.99 7.44,-1.2c2.75,-0.138 7.257,-0.447 7.257,-0.447Z" style="fill:#1c1a1b;"/><path d="M70.677,74.217l0.606,-0.245c0.147,0.339 1.219,2.811 2.159,4.088c0.808,1.099 0.771,1.956 1.635,1.182c1.163,-1.041 2.809,-2.064 4.209,-5.283c0.604,0.333 0.605,0.306 1.164,0.727c-2.427,2.917 -2.277,3.036 -5.108,5.574c-0.822,0.737 -0.028,1.34 0.587,0.876c1.983,-1.499 4.196,-3.764 6.59,-4.568c0.398,0.523 0.372,0.515 0.736,1.084c-1.508,0.476 -1.587,0.265 -2.934,1.088c0.015,0.119 0.029,0.238 0.044,0.357c0.231,-0.003 2.53,-0.038 2.862,0.351c0.084,0.099 0.025,0.269 0.096,0.378c0.12,0.184 0.239,0.178 0.264,0.176c0.298,-0.015 0.229,-0.202 0.528,-0.217c0.058,0.508 0.562,2.288 -0.427,5.143c-0.186,-0.323 -0.209,-1.477 -1.728,-0.263c-0.88,0.703 -0.962,0.576 -1.783,1.363c0.696,0.573 0.658,0.651 1.532,0.791c0.33,0.053 0.407,0.113 0.436,0.135c0.251,0.195 0.118,0.295 0.363,0.486c-0.087,0.051 -0.215,-0.02 -0.302,0.031c-0.906,0.53 -0.668,0.771 -1.478,1.421c-0.121,-0.161 -0.176,-0.113 -0.646,-0.832c-0.416,-0.636 -2.66,-4.169 -3.262,-3.787c-0.069,0.044 -0.064,0.163 -0.133,0.207c0.027,0.077 1.776,3.838 2.341,4.196c0.346,0.219 0.71,0.41 1.056,0.63c-1.242,0.705 -1.251,0.634 -2.59,1.121c-0.166,-0.345 -0.349,-0.172 -0.511,-0.508c-0.013,-0.027 -0.015,-0.031 0.092,-0.365c0.06,-0.188 0.458,-1.43 -0.105,-2.461c-0.548,-1.003 -0.454,0.611 -3.133,2.071c-1.163,0.634 -0.744,1.067 -1.085,1.266c-0.107,0.062 -0.243,-0.189 -0.35,-0.126c-1.084,-0.358 -1.44,-0.533 -1.559,-0.592c1.013,-0.836 1.04,-0.819 1.074,-0.939c0.452,-1.627 -2.24,-0.054 -2.407,0.043l-0.278,0.078c-0.261,-0.385 -0.231,-0.392 -0.508,-0.687c0.499,-0.285 0.406,-0.441 1.184,-0.676c0.169,-0.051 2.789,-0.841 1.705,-1.4c-0.31,-0.16 -2.381,0.606 -3.101,0.693c-0.424,0.051 -0.391,0.108 -0.814,0.225c-1.153,-1.844 -1.212,-2.643 -1.41,-3.258c-0.342,-2.149 0.004,-3.386 0.209,-4.384c0.183,0.177 0.455,0.243 0.638,0.42c0.087,0.084 0.422,0.993 0.455,1.081c-0.103,0.098 -0.126,0.26 -0.229,0.358c-0.448,0.427 -0.751,0.381 -0.493,0.8c0.098,0.158 0.197,0.049 1.522,1.757c0.118,0.152 1.82,2.348 1.914,1.448c0.056,-0.533 -0.852,-0.917 -0.681,-2.211c0.223,-1.684 -0.069,-1.721 0.489,-3.32c0.264,-0.757 -0.861,-1.826 -1.042,-3.137c-0.087,-0.632 -0.235,-0.566 -0.369,-0.89c0.122,-0.105 0.243,-0.21 0.365,-0.314c1.239,1.434 3.115,5.342 3.763,5.364c2.284,0.077 -2.131,-3.803 -2.266,-6.464c-0.002,-0.046 0.115,-0.033 0.112,-0.079Z" style="fill:#de5d5c;"/><path d="M64.091,60.672c-7.632,3.456 -10.404,-4.194 -5.294,-7.379c4.985,-3.108 10.182,3.933 5.294,7.379Z" style="fill:#f6f1e8;"/><path d="M77.69,48.537c1.134,1.996 0.608,7.129 -2.682,7.284c-4.881,0.229 -4.874,-8.317 -0.069,-8.776c0.972,-0.093 2.231,0.577 2.752,1.493Z" style="fill:#f6f1e8;"/><path d="M74.822,72.617c0.77,0.345 0.76,0.361 0.832,0.373c1.869,0.307 1.865,0.277 3.632,0.969c-1.401,3.219 -3.046,4.242 -4.209,5.283c-0.865,0.774 -0.827,-0.083 -1.635,-1.182c-0.94,-1.278 -2.011,-3.749 -2.159,-4.088c1.433,-0.638 1.451,-0.536 2.966,-0.895c0.057,-0.014 0.043,-0.034 0.574,-0.46Z" style="fill:#f1817e;"/><path d="M83.689,84.927c-0.304,0.952 -0.433,0.945 -0.3,1.321c0.659,1.865 3.63,0.518 4.155,0.388c1.167,-0.289 3.599,0.24 4.646,2.223c0.308,0.582 -0.134,1.885 -1.185,0.444c-1.789,-2.453 -3.52,-1.219 -5.963,-0.737c-1.545,-0.102 -1.417,-0.449 -2.257,-1.059c-0.077,-0.056 -0.2,-0.012 -0.277,-0.068c-0.245,-0.191 -0.112,-0.291 -0.363,-0.486c-0.029,-0.022 -0.106,-0.083 -0.436,-0.135c-0.874,-0.14 -0.837,-0.217 -1.532,-0.791c0.821,-0.788 0.903,-0.66 1.783,-1.363c1.519,-1.213 1.543,-0.06 1.728,0.263Z" style="fill:#ea726e;"/><path d="M63.433,61.386c-0.419,0.018 -1.276,0.378 -1.943,-1.287c-1.194,-2.98 2.864,-6.118 3.697,-2.202c0.433,2.037 -1.493,3.316 -1.753,3.489Z" style="fill:#1c1a1a;"/><path d="M76.177,55.781c-0.419,0.018 -1.276,0.378 -1.943,-1.287c-1.194,-2.98 2.864,-6.118 3.697,-2.202c0.433,2.037 -1.493,3.316 -1.753,3.489Z" style="fill:#1c1a1a;"/><path d="M68.702,75.71c0.134,0.324 0.282,0.259 0.369,0.89c0.181,1.31 1.306,2.379 1.042,3.137c-0.558,1.599 -0.266,1.637 -0.489,3.32c-0.171,1.295 0.736,1.678 0.681,2.211c-0.094,0.9 -1.796,-1.296 -1.914,-1.448c-1.325,-1.709 -1.424,-1.599 -1.522,-1.757c-0.258,-0.419 0.045,-0.373 0.493,-0.8c0.103,-0.098 0.126,-0.26 0.229,-0.358c0.933,1.997 1.097,2.028 1.23,1.905c0.124,-0.116 -0.063,-0.336 -0.061,-0.505c0.026,-2.111 -0.796,-2.752 -1.833,-3.953c0.61,-1.231 0.613,-1.447 1.774,-2.643Z" style="fill:#f1807e;"/><path d="M78.953,84.482c0.698,-0.968 0.999,-1.421 0.369,-3.941c-0.291,-1.166 2.767,-0.893 3.536,0.369c1.157,1.898 -1.319,2.928 -3.261,4.371c-0.374,-0.369 -0.359,-0.362 -0.645,-0.799Z" style="fill:#f27f7c;"/><path d="M80.45,74.686c1.092,0.7 1.098,0.692 2.069,1.881c-2.394,0.805 -4.608,3.069 -6.59,4.568c-0.614,0.464 -1.408,-0.139 -0.587,-0.876c2.831,-2.538 2.681,-2.657 5.108,-5.574Z" style="fill:#f27f7b;"/><path d="M72.403,90.302c0.107,-0.062 0.243,0.189 0.35,0.126c0.341,-0.199 -0.078,-0.632 1.085,-1.266c2.679,-1.46 2.585,-3.073 3.133,-2.071c0.563,1.031 0.165,2.274 0.105,2.461c-0.107,0.333 -0.105,0.337 -0.092,0.365c0.161,0.336 0.345,0.163 0.511,0.508l-0.405,0.111c-2.156,0.21 -2.152,0.326 -4.286,-0.069l-0.399,-0.166Z" style="fill:#f2807c;"/><path d="M70.677,74.217c0.002,0.046 -0.115,0.033 -0.112,0.079c0.135,2.662 4.55,6.541 2.266,6.464c-0.648,-0.022 -2.525,-3.93 -3.763,-5.364c0.79,-0.616 0.757,-0.629 1.61,-1.179Z" style="fill:#f48885;"/><path d="M76.688,84.479c0.069,-0.044 0.064,-0.163 0.133,-0.207c0.601,-0.382 2.846,3.152 3.262,3.787c0.47,0.719 0.525,0.67 0.646,0.832c-0.215,0.138 -0.429,0.276 -0.644,0.414c-0.346,-0.219 -0.71,-0.41 -1.056,-0.63c-0.565,-0.358 -2.314,-4.12 -2.341,-4.196Z" style="fill:#f58f8a;"/><path d="M76.033,85.155c0.35,0.602 0.547,0.731 -0.004,1.168c-1.863,1.479 -1.801,1.531 -1.97,1.649c-1.903,1.33 -1.04,-0.587 -0.964,-0.64c1.499,-1.066 1.342,-1.253 2.938,-2.177Z" style="fill:#f5807f;"/><path d="M83.256,77.651c0.538,1.035 0.482,1.035 0.859,2.132c-0.299,0.015 -0.229,0.202 -0.528,0.217c-0.025,0.001 -0.145,0.007 -0.264,-0.176c-0.071,-0.109 -0.012,-0.279 -0.096,-0.378c-0.332,-0.389 -2.631,-0.354 -2.862,-0.351l-0.044,-0.357c1.347,-0.823 1.426,-0.611 2.934,-1.088Z" style="fill:#f28c86;"/><path d="M72.706,85.568c0.284,-0.317 0.231,-0.35 1.478,-1.453c1.08,-0.955 1.332,-1.501 1.709,-1.281c0.272,0.159 0.784,0.708 -2.398,3.119c-0.309,0.234 -0.34,0.122 -0.694,0.249c-0.032,-0.211 -0.063,-0.423 -0.095,-0.634Z" style="fill:#f5817d;"/><path d="M67.7,87.047c0.423,-0.117 0.39,-0.173 0.814,-0.225c0.72,-0.087 2.791,-0.853 3.101,-0.693c1.084,0.559 -1.536,1.349 -1.705,1.4c-0.778,0.235 -0.685,0.391 -1.184,0.676c-0.566,-0.541 -0.555,-0.527 -1.026,-1.158Z" style="fill:#f4807d;"/><path d="M66.928,78.353c1.036,1.2 1.859,1.842 1.833,3.953c-0.002,0.17 0.185,0.389 0.061,0.505c-0.133,0.124 -0.297,0.092 -1.23,-1.905c-0.032,-0.088 -0.367,-0.997 -0.455,-1.081c-0.183,-0.177 -0.455,-0.243 -0.638,-0.42c0.143,-0.351 0.286,-0.701 0.429,-1.052Z" style="fill:#dd6060;"/><path d="M72.415,84.153c-0.15,0.114 -0.843,1.174 -1.67,-0.136c-0.407,-0.645 -0.147,-0.747 0.55,-1.043c0.77,-0.327 0.948,-0.589 1.391,0.121c0.346,0.554 0.207,0.626 -0.271,1.057Z" style="fill:#f3817e;"/><path d="M78.166,83.812c-0.058,-0.15 -0.218,-0.247 -0.276,-0.397c-0.062,-0.16 0.301,-0.173 -0.052,-2.149c-0.12,-0.674 0.287,-0.918 0.696,-0.353c0.501,0.692 0.232,2.773 0.012,2.901c-0.109,0.064 -0.27,-0.066 -0.379,-0.002Z" style="fill:#f48580;"/><path d="M69.511,88.813c0.166,-0.097 2.859,-1.67 2.407,-0.043c-0.034,0.121 -0.061,0.103 -1.074,0.939c-0.833,-0.407 -0.786,-0.458 -1.333,-0.896Z" style="fill:#f48a84;"/><path d="M69.821,56.971c0.088,-0.041 2.076,-0.957 0.827,0.892c-0.469,0.695 -1.51,0.131 -1.544,0.019c-0.202,-0.659 0.14,-0.548 0.717,-0.911Z" style="fill:#eeece5;"/><path d="M73.657,81.394c0.151,0.055 0.331,-0.062 0.481,-0.007c0.602,0.22 0.199,1.456 -0.238,1.466c-1.145,0.026 -0.305,-1.358 -0.244,-1.459Z" style="fill:#f58c88;"/><path d="M70.607,81.266c0.159,-0.34 -0.065,-0.373 0.09,-0.705c0.009,-0.019 0.021,-0.044 0.262,-0.046c0.439,-0.004 0.415,0.083 0.64,0.455c0.504,0.835 -0.709,1.276 -1.017,0.658c-0.054,-0.108 0.08,-0.254 0.026,-0.362Z" style="fill:#f07a78;"/><path d="M76.76,82.56c-0.289,-0.528 -0.332,-0.522 -0.311,-0.569c0.295,-0.658 0.995,-0.025 0.689,0.393c-0.082,0.112 -0.296,0.064 -0.378,0.176Z" style="fill:#f28782;"/><path d="M68.035,84.892c0.044,0.075 0.774,1.304 0.049,1.083c-0.147,-0.045 -0.392,-0.14 -0.358,-0.289c0.088,-0.388 0.393,-0.124 0.534,-0.484c0.088,-0.225 -0.311,-0.089 -0.225,-0.31Z" style="fill:#ed7976;"/></g></svg>